<svg xmlns="http://www.w3.org/2000/svg" viewBox="0 0 256 256" role="img" aria-labelledby="title desc">
  <title id="title">淅泽剑形标志</title>
  <desc id="desc">A white fantasy sword on a soft blue circle.</desc>
  <defs>
    <radialGradient id="bg" cx="45%" cy="36%" r="72%">
      <stop offset="0%" stop-color="#d8efff"/>
      <stop offset="48%" stop-color="#8ec9ff"/>
      <stop offset="100%" stop-color="#5aa8ef"/>
    </radialGradient>
    <linearGradient id="blade" x1="0" x2="0" y1="28" y2="178" gradientUnits="userSpaceOnUse">
      <stop offset="0%" stop-color="#ffffff"/>
      <stop offset="52%" stop-color="#f7fbff"/>
      <stop offset="100%" stop-color="#e7eefc"/>
    </linearGradient>
    <linearGradient id="edge" x1="80" x2="176" y1="30" y2="176" gradientUnits="userSpaceOnUse">
      <stop offset="0%" stop-color="#8b91a7"/>
      <stop offset="100%" stop-color="#6d7289"/>
    </linearGradient>
    <filter id="softShadow" x="-20%" y="-20%" width="140%" height="150%">
      <feDropShadow dx="0" dy="6" stdDeviation="7" flood-color="#3c537a" flood-opacity="0.24"/>
    </filter>
  </defs>
  <circle cx="128" cy="128" r="126" fill="url(#bg)"/>
  <g filter="url(#softShadow)">
    <path d="M128 24c-10 9-27 28-28 49l-2 82 17 24h26l17-24-2-82c-1-21-18-40-28-49Z" fill="url(#blade)" stroke="url(#edge)" stroke-width="6" stroke-linejoin="round"/>
    <path d="M128 54c-7 13-13 25-13 40v77h26V94c0-15-6-27-13-40Z" fill="#ffffff" opacity="0.8" stroke="#b8c0d4" stroke-width="4" stroke-linejoin="round"/>
    <path d="M88 160c8 6 18 8 30 3l10 13 10-13c12 5 22 3 30-3 9 4 12 18 3 29-11 13-28 11-42 3-14 8-31 10-42-3-9-11-6-25 1-29Z" fill="#f8fbff" stroke="#73798f" stroke-width="6" stroke-linejoin="round"/>
    <path d="M116 175h24v46h-24z" fill="#f3f6ff" stroke="#7d8398" stroke-width="5" stroke-linejoin="round"/>
    <path d="M113 219h30c4 9 0 17-15 22-15-5-19-13-15-22Z" fill="#fbfdff" stroke="#73798f" stroke-width="5" stroke-linejoin="round"/>
    <path d="M128 166l12 12-12 12-12-12 12-12Z" fill="#82c5ff" stroke="#5d75a5" stroke-width="4" stroke-linejoin="round"/>
    <path d="M128 218l8 8-8 8-8-8 8-8Z" fill="#82c5ff" stroke="#5d75a5" stroke-width="3" stroke-linejoin="round"/>
  </g>
</svg>
